<svg width="419.0" height="330.0" viewBox="90.0 45.0 419.0 340.0" xmlns="http://www.w3.org/2000/svg">
    <line x1="300" y1="80" x2="150" y2="150" stroke="#666" stroke-width="2"/>
    <text x="225" y="100" font-family="Arial" font-size="14" fill="#000">70</text>

    <line x1="300" y1="80" x2="450" y2="150" stroke="#666" stroke-width="2"/>
    <text x="370" y="100" font-family="Arial" font-size="14" fill="#000">10</text>

    <line x1="300" y1="80" x2="480" y2="300" stroke="#666" stroke-width="2"/>
    <text x="330" y="150" font-family="Arial" font-size="14" fill="#000">5</text>

    <line x1="150" y1="150" x2="300" y2="250" stroke="#666" stroke-width="2"/>
    <text x="230" y="195" font-family="Arial" font-size="14" fill="#000">30</text>

    <line x1="150" y1="150" x2="120" y2="300" stroke="#666" stroke-width="2"/>
    <text x="140" y="240" font-family="Arial" font-size="14" fill="#000">18</text>

    <line x1="150" y1="150" x2="300" y2="350" stroke="#666" stroke-width="2"/>
    <text x="200" y="260" font-family="Arial" font-size="14" fill="#000">20</text>

    <line x1="120" y1="300" x2="300" y2="350" stroke="#666" stroke-width="2"/>
    <text x="200" y="315" font-family="Arial" font-size="14" fill="#000">90</text>

    <line x1="300" y1="350" x2="480" y2="300" stroke="#666" stroke-width="2"/>
    <text x="380" y="320" font-family="Arial" font-size="14" fill="#000">9</text>

    <line x1="300" y1="250" x2="300" y2="350" stroke="#666" stroke-width="2"/>
    <text x="288" y="305" font-family="Arial" font-size="14" fill="#000">3</text>

    <line x1="300" y1="250" x2="480" y2="300" stroke="#666" stroke-width="2"/>
    <text x="380" y="265" font-family="Arial" font-size="14" fill="#000">40</text>

    <line x1="300" y1="250" x2="450" y2="150" stroke="#666" stroke-width="2"/>
    <text x="395" y="170" font-family="Arial" font-size="14" fill="#000">15</text>

    <line x1="450" y1="150" x2="480" y2="300" stroke="#666" stroke-width="2"/>
    <text x="470" y="225" font-family="Arial" font-size="14" fill="#000">11</text>

    <circle id="n2" cx="300" cy="80" r="25" fill="#dde" stroke="#333" stroke-width="2"/>
    <circle id="n4" cx="150" cy="150" r="25" fill="#dde" stroke="#333" stroke-width="2"/>
    <circle id="n5" cx="450" cy="150" r="25" fill="#dde" stroke="#333" stroke-width="2"/>
    <circle id="n3" cx="120" cy="300" r="25" fill="#dde" stroke="#333" stroke-width="2"/>
    <circle id="n6" cx="300" cy="350" r="25" fill="#dde" stroke="#333" stroke-width="2"/>
    <circle id="n7" cx="480" cy="300" r="25" fill="#dde" stroke="#333" stroke-width="2"/>
    <circle id="n1" cx="300" cy="250" r="25" fill="#dde" stroke="#333" stroke-width="2"/>

    <text x="300" y="85" font-family="Arial" font-size="16" text-anchor="middle" fill="#000">2</text>
    <text x="150" y="155" font-family="Arial" font-size="16" text-anchor="middle" fill="#000">4</text>
    <text x="450" y="155" font-family="Arial" font-size="16" text-anchor="middle" fill="#000">5</text>
    <text x="120" y="305" font-family="Arial" font-size="16" text-anchor="middle" fill="#000">3</text>
    <text x="300" y="355" font-family="Arial" font-size="16" text-anchor="middle" fill="#000">6</text>
    <text x="480" y="305" font-family="Arial" font-size="16" text-anchor="middle" fill="#000">7</text>
    <text x="300" y="255" font-family="Arial" font-size="16" text-anchor="middle" fill="#000">1</text>
</svg>
